<?xml version="1.0" standalone="no"?>
<!DOCTYPE svg PUBLIC "-//W3C//DTD SVG 20010904//EN"
 "http://www.w3.org/TR/2001/REC-SVG-20010904/DTD/svg10.dtd">
<svg version="1.0" xmlns="http://www.w3.org/2000/svg"
 width="512.000000pt" height="512.000000pt" viewBox="0 0 512.000000 512.000000"
 preserveAspectRatio="xMidYMid meet">

<g transform="translate(0.000000,512.000000) scale(0.100000,-0.100000)"
fill="#000000" stroke="none">
<path d="M105 4196 c-41 -18 -93 -79 -100 -118 -3 -18 -5 -148 -3 -289 l3
-256 27 -40 c49 -74 67 -78 368 -78 292 0 300 1 354 65 42 51 48 92 44 359
l-3 248 -28 42 c-50 76 -72 81 -372 80 -193 0 -268 -3 -290 -13z m539 -152 c3
-9 6 -116 6 -239 0 -212 -1 -225 -19 -235 -29 -15 -453 -14 -469 2 -13 13 -18
469 -5 481 3 4 113 7 244 7 207 0 238 -2 243 -16z"/>
<path d="M1255 4194 c-46 -24 -73 -53 -90 -99 -14 -35 -16 -82 -13 -301 3
-247 4 -261 25 -294 12 -20 41 -47 65 -60 l43 -25 1850 0 c1800 0 1851 1 1888
19 22 11 51 37 65 59 l27 41 0 282 0 282 -31 39 c-64 80 85 73 -1615 73
l-1516 0 -21 -23 c-28 -30 -29 -78 -1 -103 20 -18 64 -19 1528 -24 l1506 -5 3
-234 c2 -164 -1 -238 -9 -247 -17 -21 -3631 -21 -3648 0 -8 9 -11 83 -9 247
l3 234 175 5 c96 3 182 9 192 13 43 22 43 103 -1 126 -12 7 -93 11 -203 11
-146 0 -189 -3 -213 -16z"/>
<path d="M105 2942 c-48 -23 -69 -45 -90 -95 -12 -29 -15 -84 -15 -289 0 -279
6 -310 65 -356 50 -39 88 -44 356 -40 l256 3 40 27 c74 49 78 67 78 368 0 301
-4 319 -78 368 l-40 27 -266 3 c-242 2 -270 1 -306 -16z m533 -144 c19 -19 17
-461 -2 -477 -9 -8 -83 -11 -247 -9 l-234 3 -3 235 c-1 129 0 240 2 247 7 18
466 19 484 1z"/>
<path d="M1255 2941 c-48 -22 -69 -44 -90 -94 -12 -29 -15 -84 -15 -289 0
-292 5 -315 81 -365 l43 -28 1528 -3 1529 -2 24 24 c32 32 33 75 2 104 l-23
22 -1505 0 c-1157 0 -1508 3 -1517 12 -18 18 -17 461 2 477 10 8 496 10 1832
9 l1819 -3 0 -245 0 -245 -173 -5 c-168 -5 -174 -6 -193 -29 -24 -30 -24 -62
0 -92 19 -23 25 -24 188 -27 178 -4 221 3 268 40 59 46 65 77 65 358 0 226 -3
260 -19 295 -22 48 -44 69 -94 90 -32 13 -243 15 -1874 15 -1762 0 -1840 -1
-1878 -19z"/>
<path d="M130 1699 c-52 -16 -86 -45 -110 -93 -20 -42 -21 -56 -18 -314 l3
-270 31 -39 c57 -71 66 -73 359 -73 300 0 322 5 372 81 l28 42 3 248 c4 267
-2 308 -44 359 -53 63 -64 65 -339 67 -149 1 -264 -2 -285 -8z m501 -149 c18
-10 19 -23 19 -238 0 -125 -4 -233 -8 -240 -7 -9 -63 -12 -248 -10 l-239 3 -3
234 c-2 164 1 238 9 247 9 11 57 14 231 14 132 0 227 -4 239 -10z"/>
<path d="M1278 1698 c-48 -13 -104 -68 -117 -116 -6 -21 -11 -142 -11 -282 0
-278 6 -303 76 -356 l37 -29 393 -3 c384 -3 394 -2 414 18 27 27 27 81 -1 106
-20 18 -45 19 -393 24 l-371 5 -3 234 c-2 164 1 238 9 247 17 21 3631 21 3648
0 8 -9 11 -83 9 -247 l-3 -234 -1311 -5 c-1272 -5 -1313 -6 -1333 -24 -27 -25
-28 -79 -1 -106 20 -20 33 -20 1343 -20 1482 0 1357 -6 1421 73 l31 39 0 282
0 282 -27 41 c-14 22 -43 48 -65 59 -37 18 -90 19 -1873 21 -1179 0 -1848 -2
-1872 -9z"/>
</g>
</svg>
